<svg xmlns="http://www.w3.org/2000/svg" width="1024" height="1024" viewBox="0 0 1024 1024" role="img" aria-labelledby="title-24">
  <title id="title-24">南十字星羊</title>
  <defs>
    <linearGradient id="fur" x1="0" y1="0" x2="1" y2="1"><stop stop-color="#f8ffff"/><stop offset=".52" stop-color="#92c7ff"/><stop offset="1" stop-color="#174477"/></linearGradient>
    <linearGradient id="face" x1=".2" y1="0" x2=".8" y2="1"><stop stop-color="#d3edff"/><stop offset="1" stop-color="#234671"/></linearGradient>
    <linearGradient id="accent" x1="0" y1="0" x2="1" y2="1"><stop stop-color="#fff5ac"/><stop offset="1" stop-color="#df224a"/></linearGradient>
    <linearGradient id="accent2" x1="0" y1="0" x2="0" y2="1"><stop stop-color="#df224a"/><stop offset="1" stop-color="#fff5ac"/></linearGradient>
    <linearGradient id="rainbow"><stop stop-color="#ff6767"/><stop offset=".26" stop-color="#ffdc58"/><stop offset=".52" stop-color="#4dcf7b"/><stop offset=".76" stop-color="#5ba8ff"/><stop offset="1" stop-color="#cf76f4"/></linearGradient>
    <linearGradient id="aurora"><stop stop-color="#71f5e4"/><stop offset=".5" stop-color="#71bfff"/><stop offset="1" stop-color="#c181ff"/></linearGradient>
    <linearGradient id="galaxy"><stop stop-color="#151d4b"/><stop offset=".52" stop-color="#5441a8"/><stop offset="1" stop-color="#df65bc"/></linearGradient>
    <linearGradient id="ice" x1="0" y1="0" x2="1" y2="1"><stop stop-color="#fff"/><stop offset=".35" stop-color="#bcecff"/><stop offset=".7" stop-color="#8dbef7"/><stop offset="1" stop-color="#d7f8ff"/></linearGradient>
    <linearGradient id="nzstripe"><stop stop-color="#101820"/><stop offset=".45" stop-color="#101820"/><stop offset=".46" stop-color="#f6d35d"/><stop offset=".66" stop-color="#f6d35d"/><stop offset=".67" stop-color="#4eaa70"/></linearGradient>
    <radialGradient id="shine"><stop stop-color="#fff" stop-opacity=".75"/><stop offset="1" stop-color="#fff" stop-opacity="0"/></radialGradient>
    <filter id="shadow" x="-25%" y="-25%" width="150%" height="165%"><feDropShadow dx="0" dy="24" stdDeviation="18" flood-color="#243127" flood-opacity=".25"/></filter>
    <style>
      .sheep-body { transform-box: fill-box; transform-origin: 50% 100%; }
      .sheep-body { animation: bodyFloat 1.15s ease-in-out infinite; }
      .sheep-ear-left, .sheep-ear-right { transform-box: fill-box; transform-origin: 50% 100%; }
      .sheep-ear-left { animation: earLeft 2.8s ease-in-out infinite; }
      .sheep-ear-right { animation: earRight 3.1s ease-in-out infinite; }
      .leg-front-a, .leg-back-a { transform-box: fill-box; transform-origin: 50% 8%; animation: legFront .58s ease-in-out infinite; }
      .leg-front-b, .leg-back-b { transform-box: fill-box; transform-origin: 50% 8%; animation: legBack .58s ease-in-out infinite; animation-delay: 0.28s; }
      .blink-line, .surprised-mouth { animation-delay: 3.91s; }
      @keyframes bodyFloat { 0%, 100% { transform: translateY(0); } 45% { transform: translateY(-4px); } 70% { transform: translateY(1px); } }
      @keyframes earLeft { 0%, 100% { transform: rotate(-7deg); } 48% { transform: rotate(3deg); } 56% { transform: rotate(-1deg); } }
      @keyframes earRight { 0%, 100% { transform: rotate(8deg); } 52% { transform: rotate(-4deg); } 60% { transform: rotate(1deg); } }
      @keyframes legFront { 0%, 100% { transform: rotate(7deg) translateY(0); } 45% { transform: rotate(-9deg) translateY(-4px); } 70% { transform: rotate(2deg) translateY(1px); } }
      @keyframes legBack { 0%, 100% { transform: rotate(-8deg) translateY(0); } 45% { transform: rotate(9deg) translateY(-4px); } 70% { transform: rotate(-2deg) translateY(1px); } }
    </style>
  </defs>
  <g filter="url(#shadow)">
    <ellipse cx="494" cy="829" rx="295" ry="48" fill="#243127" opacity=".16"/>
    <g stroke="#433632" stroke-width="14" stroke-linejoin="round">
      <g class="leg-front-a"><path d="M303 620v176q0 34 37 34t38-34V626" fill="url(#face)"/></g>
      <g class="leg-back-a"><path d="M526 638v168q0 34 37 34t38-34V638" fill="url(#face)"/></g>
      <g class="leg-front-b"><path d="M648 625v179q0 34 37 34t38-34V617" fill="url(#face)"/></g>
      <g class="leg-back-b"><path d="M758 600v205q0 34 38 34t38-34V586" fill="url(#face)"/></g>
    </g>
    <g fill="#342b2b"><rect x="295" y="804" width="93" height="39" rx="19"/><rect x="518" y="809" width="92" height="39" rx="19"/><rect x="641" y="808" width="92" height="39" rx="19"/><rect x="755" y="807" width="93" height="39" rx="19"/></g>
    <g class="sheep-body">
      <circle cx="171" cy="510" r="76" fill="url(#fur)" stroke="#665049" stroke-width="14"/>
      <ellipse cx="448" cy="505" rx="290" ry="244" fill="url(#fur)" stroke="#665049" stroke-width="16"/>
      <g fill="url(#fur)" stroke="#665049" stroke-width="14"><circle cx="218" cy="375" r="82"/><circle cx="287" cy="283" r="91"/><circle cx="390" cy="236" r="93"/><circle cx="505" cy="226" r="96"/><circle cx="610" cy="270" r="88"/><circle cx="677" cy="346" r="82"/><circle cx="211" cy="493" r="88"/><circle cx="215" cy="606" r="82"/><circle cx="301" cy="686" r="88"/><circle cx="420" cy="721" r="91"/><circle cx="542" cy="700" r="88"/><circle cx="645" cy="634" r="82"/></g>
      <ellipse cx="425" cy="432" rx="183" ry="145" fill="url(#shine)" opacity=".55"/>
      <path class="sheep-ear-left" d="M629 418q-77-75-124 6 31 79 121 67z" fill="#d3edff" stroke="#654743" stroke-width="14"/>
      <path class="sheep-ear-right" d="M846 425q78-68 119 16-36 72-116 55z" fill="#d3edff" stroke="#654743" stroke-width="14"/>
      <rect x="592" y="328" width="310" height="346" rx="151" fill="url(#face)" stroke="#654743" stroke-width="16"/>
      <ellipse cx="677" cy="467" rx="41" ry="51" fill="#fff"/><ellipse cx="817" cy="467" rx="41" ry="51" fill="#fff"/>
      <ellipse cx="683" cy="477" rx="20" ry="27" fill="#21191b"><animate attributeName="cx" values="683;690;683;677;683" dur="3.7s" repeatCount="indefinite"/></ellipse>
      <ellipse cx="823" cy="477" rx="20" ry="27" fill="#21191b"><animate attributeName="cx" values="823;830;823;817;823" dur="3.7s" repeatCount="indefinite"/></ellipse>
      <circle cx="689" cy="468" r="7" fill="#fff"/><circle cx="829" cy="468" r="7" fill="#fff"/>
      <path class="blink-line" d="M641 477q36 24 72 0M781 477q36 24 72 0" fill="none" stroke="#234671" stroke-width="14" stroke-linecap="round" opacity="0">
        <animate attributeName="opacity" values="0;0;1;1;0;0" keyTimes="0;.39;.43;.48;.53;1" dur="4.9s" repeatCount="indefinite"/>
      </path>
      <ellipse cx="750" cy="563" rx="38" ry="27" fill="#8b4f56" opacity=".7"/>
      <path d="M750 590q-3 35-46 40m46-40q3 35 46 40" fill="none" stroke="#69383d" stroke-width="11" stroke-linecap="round" opacity=".88">
        <animate attributeName="opacity" values=".88;.88;0;0;.88;.88" keyTimes="0;.39;.43;.48;.53;1" dur="5.9s" repeatCount="indefinite"/>
      </path>
      <ellipse class="surprised-mouth" cx="750" cy="604" rx="25" ry="32" fill="#69383d" opacity="0">
        <animate attributeName="opacity" values="0;0;1;1;0;0" keyTimes="0;.39;.43;.48;.53;1" dur="5.9s" repeatCount="indefinite"/>
      </ellipse>
      <path d="M706 555q-30 28-56 0M794 555q30 28 56 0" fill="none" stroke="#ff9eaa" stroke-width="14" stroke-linecap="round" opacity=".58"/>
      <path d="M601 643q143 82 289-4" fill="none" stroke="url(#accent2)" stroke-width="57" stroke-linecap="round"/><polygon points="706,179 714.5934203885159,201.17217154223826 738.3359215540352,202.4934221912518 719.9044462682351,217.51782845776174 725.9846985779441,240.5065778087482 706,227.62 686.0153014220559,240.5065778087482 692.0955537317649,217.51782845776174 673.6640784459648,202.4934221912518 697.4065796114841,201.17217154223826" fill="#fff3a3" stroke="#5b4518" stroke-width="8" stroke-linejoin="round"/><polygon points="822,257 828.8241867791156,274.60731269530686 847.6785259399692,275.6565411518764 833.0417661541867,287.58768730469313 837.8702018118968,305.8434588481236 822,295.61 806.1297981881032,305.8434588481236 810.9582338458133,287.58768730469313 796.3214740600308,275.6565411518764 815.1758132208844,274.60731269530686" fill="#fff3a3" stroke="#5b4518" stroke-width="8" stroke-linejoin="round"/><polygon points="732,343 738.0659438036583,358.6509446180505 754.8253563910837,359.58359213500125 741.8149032481659,370.18905538194946 746.1068460550193,386.41640786499875 732,377.32 717.8931539449807,386.41640786499875 722.1850967518341,370.18905538194946 709.1746436089163,359.58359213500125 725.9340561963417,358.6509446180505" fill="#fff3a3" stroke="#5b4518" stroke-width="8" stroke-linejoin="round"/><polygon points="892,384 897.0549531697153,397.04245384837543 911.0211303259031,397.819660112501 900.1790860401384,406.65754615162456 903.7557050458495,420.180339887499 892,412.6 880.2442949541505,420.180339887499 883.8209139598616,406.65754615162456 872.9788696740969,397.8196601125011 886.9450468302847,397.04245384837543" fill="#fff3a3" stroke="#5b4518" stroke-width="8" stroke-linejoin="round"/><polygon points="638,306 642.0439625357723,316.43396307870034 653.2169042607225,317.05572809000085 644.5432688321107,324.12603692129966 647.4045640366795,334.94427190999915 638,328.88 628.5954359633205,334.94427190999915 631.4567311678893,324.12603692129966 622.7830957392775,317.05572809000085 633.9560374642277,316.43396307870034" fill="#fff3a3" stroke="#5b4518" stroke-width="8" stroke-linejoin="round"/><path d="M706 213l116 71-90 83 160 37" fill="none" stroke="#fff6b0" stroke-width="8" stroke-dasharray="13 15" opacity=".7"/>
    </g>
  </g>
</svg>
